<mxfile host="app.diagrams.net" agent="Mozilla/5.0 (Windows NT 10.0; Win64; x64) AppleWebKit/537.36 (KHTML, like Gecko) Chrome/141.0.0.0 Safari/537.36 Edg/141.0.0.0" version="28.2.5">
  <diagram name="PÃ¡gina-1" id="YtuPCfJsEUs5Dqv5w_0m">
    <mxGraphModel dx="1503" dy="2098" grid="1" gridSize="10" guides="1" tooltips="1" connect="1" arrows="1" fold="1" page="1" pageScale="1" pageWidth="827" pageHeight="1169" math="0" shadow="0">
      <root>
        <mxCell id="0" />
        <mxCell id="1" parent="0" />
        <mxCell id="3eT2xQA9H0DKfOXw9t8V-71" value="VIVERO" style="rounded=0;whiteSpace=wrap;html=1;strokeColor=light-dark(#000000,#000000);fontColor=light-dark(#000000,#000000);fillColor=light-dark(#FF99FF,#FF99FF);" parent="1" vertex="1">
          <mxGeometry x="885" y="290" width="120" height="60" as="geometry" />
        </mxCell>
        <mxCell id="3eT2xQA9H0DKfOXw9t8V-72" value="&lt;div&gt;id_vivero&lt;/div&gt;&lt;div&gt;(CP)&lt;/div&gt;" style="ellipse;whiteSpace=wrap;html=1;aspect=fixed;fontStyle=0;gradientColor=none;fillColor=light-dark(#FF00FF,#FF00FF);strokeColor=light-dark(#000000,#000000);fontColor=light-dark(#000000,#000000);" parent="1" vertex="1">
          <mxGeometry x="720" y="390" width="90" height="90" as="geometry" />
        </mxCell>
        <mxCell id="3eT2xQA9H0DKfOXw9t8V-73" value="nombre" style="ellipse;whiteSpace=wrap;html=1;aspect=fixed;strokeColor=light-dark(#000000,#000000);fontColor=light-dark(#000000,#000000);fillColor=light-dark(#FF99FF,#FF99FF);" parent="1" vertex="1">
          <mxGeometry x="810" y="390" width="90" height="90" as="geometry" />
        </mxCell>
        <mxCell id="3eT2xQA9H0DKfOXw9t8V-74" value="direccion" style="ellipse;whiteSpace=wrap;html=1;aspect=fixed;strokeColor=light-dark(#000000,#000000);fontColor=light-dark(#000000,#000000);fillColor=light-dark(#FF99FF,#FF99FF);" parent="1" vertex="1">
          <mxGeometry x="900" y="390" width="90" height="90" as="geometry" />
        </mxCell>
        <mxCell id="3eT2xQA9H0DKfOXw9t8V-75" value="&lt;div&gt;latitud&lt;/div&gt;" style="ellipse;whiteSpace=wrap;html=1;aspect=fixed;strokeColor=light-dark(#000000,#000000);fontColor=light-dark(#000000,#000000);fillColor=light-dark(#FF99FF,#FF99FF);" parent="1" vertex="1">
          <mxGeometry x="990" y="390" width="90" height="90" as="geometry" />
        </mxCell>
        <mxCell id="3eT2xQA9H0DKfOXw9t8V-76" value="longitud" style="ellipse;whiteSpace=wrap;html=1;aspect=fixed;strokeColor=light-dark(#000000,#000000);fontColor=light-dark(#000000,#000000);fillColor=light-dark(#FF99FF,#FF99FF);" parent="1" vertex="1">
          <mxGeometry x="1080" y="390" width="90" height="90" as="geometry" />
        </mxCell>
        <mxCell id="3eT2xQA9H0DKfOXw9t8V-78" value="&lt;div&gt;id_zona&lt;/div&gt;&lt;div&gt;(id_vivero, codigo_zona)&lt;/div&gt;&lt;div&gt;(CP)&lt;/div&gt;" style="ellipse;whiteSpace=wrap;html=1;aspect=fixed;fontStyle=0;fillColor=light-dark(#FF00FF,#FF00FF);fontColor=light-dark(#000000,#000000);strokeColor=light-dark(#000000,#000000);" parent="1" vertex="1">
          <mxGeometry x="189" y="390" width="90" height="90" as="geometry" />
        </mxCell>
        <mxCell id="3eT2xQA9H0DKfOXw9t8V-79" value="&lt;div&gt;&lt;span style=&quot;background-color: transparent;&quot;&gt;codigo_zona&lt;/span&gt;&lt;/div&gt;" style="ellipse;whiteSpace=wrap;html=1;aspect=fixed;fillColor=light-dark(#FF99FF,#FF99FF);fontColor=light-dark(#000000,#000000);strokeColor=light-dark(#000000,#000000);" parent="1" vertex="1">
          <mxGeometry x="279" y="390" width="90" height="90" as="geometry" />
        </mxCell>
        <mxCell id="3eT2xQA9H0DKfOXw9t8V-80" value="descripcion" style="ellipse;whiteSpace=wrap;html=1;aspect=fixed;fillColor=light-dark(#FF99FF,#FF99FF);fontColor=light-dark(#000000,#000000);strokeColor=light-dark(#000000,#000000);" parent="1" vertex="1">
          <mxGeometry x="369" y="390" width="90" height="90" as="geometry" />
        </mxCell>
        <mxCell id="3eT2xQA9H0DKfOXw9t8V-81" value="&lt;div&gt;latitud&lt;/div&gt;" style="ellipse;whiteSpace=wrap;html=1;aspect=fixed;fillColor=light-dark(#FF99FF,#FF99FF);fontColor=light-dark(#000000,#000000);strokeColor=light-dark(#000000,#000000);" parent="1" vertex="1">
          <mxGeometry x="459" y="390" width="90" height="90" as="geometry" />
        </mxCell>
        <mxCell id="3eT2xQA9H0DKfOXw9t8V-82" value="longitud" style="ellipse;whiteSpace=wrap;html=1;aspect=fixed;strokeColor=light-dark(#000000,#000000);fontColor=light-dark(#000000,#000000);fillColor=light-dark(#FF99FF,#FF99FF);" parent="1" vertex="1">
          <mxGeometry x="549" y="390" width="90" height="90" as="geometry" />
        </mxCell>
        <mxCell id="3eT2xQA9H0DKfOXw9t8V-83" value="EMPLEADO" style="rounded=0;whiteSpace=wrap;html=1;strokeColor=light-dark(#000000,#000000);fontColor=light-dark(#000000,#000000);fillColor=light-dark(#FF99FF,#FF99FF);" parent="1" vertex="1">
          <mxGeometry x="1554" y="150" width="120" height="60" as="geometry" />
        </mxCell>
        <mxCell id="3eT2xQA9H0DKfOXw9t8V-84" value="&lt;div&gt;id_empleado&lt;/div&gt;&lt;div&gt;(CP)&lt;/div&gt;" style="ellipse;whiteSpace=wrap;html=1;aspect=fixed;fontStyle=0;gradientColor=none;fillColor=light-dark(#FF00FF,#FF00FF);strokeColor=light-dark(#000000,#000000);fontColor=light-dark(#000000,#000000);" parent="1" vertex="1">
          <mxGeometry x="1389" y="15" width="90" height="90" as="geometry" />
        </mxCell>
        <mxCell id="3eT2xQA9H0DKfOXw9t8V-85" value="apellidos" style="ellipse;whiteSpace=wrap;html=1;aspect=fixed;strokeColor=light-dark(#000000,#000000);fontColor=light-dark(#000000,#000000);fillColor=light-dark(#FF99FF,#FF99FF);" parent="1" vertex="1">
          <mxGeometry x="1569" y="15" width="90" height="90" as="geometry" />
        </mxCell>
        <mxCell id="3eT2xQA9H0DKfOXw9t8V-86" value="nombre" style="ellipse;whiteSpace=wrap;html=1;aspect=fixed;strokeColor=light-dark(#000000,#000000);fontColor=light-dark(#000000,#000000);fillColor=light-dark(#FF99FF,#FF99FF);" parent="1" vertex="1">
          <mxGeometry x="1479" y="15" width="90" height="90" as="geometry" />
        </mxCell>
        <mxCell id="3eT2xQA9H0DKfOXw9t8V-87" value="dni" style="ellipse;whiteSpace=wrap;html=1;aspect=fixed;strokeColor=light-dark(#000000,#000000);fontColor=light-dark(#000000,#000000);fillColor=light-dark(#FF99FF,#FF99FF);" parent="1" vertex="1">
          <mxGeometry x="1659" y="15" width="90" height="90" as="geometry" />
        </mxCell>
        <mxCell id="3eT2xQA9H0DKfOXw9t8V-88" value="&lt;div&gt;fecha_&lt;/div&gt;&lt;div&gt;contratacion&lt;/div&gt;" style="ellipse;whiteSpace=wrap;html=1;aspect=fixed;strokeColor=light-dark(#000000,#000000);fontColor=light-dark(#000000,#000000);fillColor=light-dark(#FF99FF,#FF99FF);" parent="1" vertex="1">
          <mxGeometry x="1749" y="15" width="90" height="90" as="geometry" />
        </mxCell>
        <mxCell id="3eT2xQA9H0DKfOXw9t8V-91" value="&lt;div&gt;id_prod_zona&lt;/div&gt;&lt;div&gt;(CP)&lt;/div&gt;" style="ellipse;whiteSpace=wrap;html=1;aspect=fixed;fontStyle=0;fillColor=light-dark(#FF00FF,#FF00FF);fontColor=light-dark(#000000,#000000);strokeColor=light-dark(#000000,#000000);" parent="1" vertex="1">
          <mxGeometry x="-215" y="-115" width="90" height="90" as="geometry" />
        </mxCell>
        <mxCell id="3eT2xQA9H0DKfOXw9t8V-92" value="periodo" style="ellipse;whiteSpace=wrap;html=1;aspect=fixed;labelBackgroundColor=light-dark(#FF99FF,#FF99FF);fillColor=light-dark(#FF99FF,#FF99FF);fontColor=light-dark(#000000,#000000);gradientColor=none;strokeColor=light-dark(#000000,#000000);" parent="1" vertex="1">
          <mxGeometry x="55" y="-115" width="90" height="90" as="geometry" />
        </mxCell>
        <mxCell id="3eT2xQA9H0DKfOXw9t8V-93" value="&lt;div&gt;&lt;span style=&quot;&quot;&gt;nombre_zona&lt;/span&gt;&lt;/div&gt;&lt;div&gt;&lt;span style=&quot;&quot;&gt;(CF)&lt;/span&gt;&lt;/div&gt;" style="ellipse;whiteSpace=wrap;html=1;aspect=fixed;labelBackgroundColor=light-dark(#FF99FF,#FF99FF);fillColor=light-dark(#FF99FF,#FF99FF);fontColor=light-dark(#000000,#000000);gradientColor=none;strokeColor=light-dark(#000000,#000000);" parent="1" vertex="1">
          <mxGeometry x="-35" y="-115" width="90" height="90" as="geometry" />
        </mxCell>
        <mxCell id="3eT2xQA9H0DKfOXw9t8V-94" value="id_vivero&lt;div&gt;(CF)&lt;/div&gt;" style="ellipse;whiteSpace=wrap;html=1;aspect=fixed;labelBackgroundColor=light-dark(#FF99FF,#FF99FF);fillColor=light-dark(#FF99FF,#FF99FF);fontColor=light-dark(#000000,#000000);gradientColor=none;strokeColor=light-dark(#000000,#000000);" parent="1" vertex="1">
          <mxGeometry x="-125" y="-115" width="90" height="90" as="geometry" />
        </mxCell>
        <mxCell id="3eT2xQA9H0DKfOXw9t8V-95" value="ventas_&lt;div&gt;monetarias&lt;/div&gt;" style="ellipse;whiteSpace=wrap;html=1;aspect=fixed;labelBackgroundColor=light-dark(#FF99FF,#FF99FF);fillColor=light-dark(#FF99FF,#FF99FF);fontColor=light-dark(#000000,#000000);gradientColor=none;strokeColor=light-dark(#000000,#000000);" parent="1" vertex="1">
          <mxGeometry x="145" y="-115" width="90" height="90" as="geometry" />
        </mxCell>
        <mxCell id="3eT2xQA9H0DKfOXw9t8V-96" value="&lt;div&gt;unidades_&lt;/div&gt;&lt;div&gt;vendidas&lt;/div&gt;" style="ellipse;whiteSpace=wrap;html=1;aspect=fixed;labelBackgroundColor=light-dark(#FF99FF,#FF99FF);fillColor=light-dark(#FF99FF,#FF99FF);fontColor=light-dark(#000000,#000000);gradientColor=none;strokeColor=light-dark(#000000,#000000);" parent="1" vertex="1">
          <mxGeometry x="235" y="-115" width="90" height="90" as="geometry" />
        </mxCell>
        <mxCell id="3eT2xQA9H0DKfOXw9t8V-103" value="PEDIDO" style="rounded=0;whiteSpace=wrap;html=1;strokeColor=light-dark(#000000,#000000);fontColor=light-dark(#000000,#000000);fillColor=light-dark(#FF99FF,#FF99FF);" parent="1" vertex="1">
          <mxGeometry x="1554" y="510" width="120" height="60" as="geometry" />
        </mxCell>
        <mxCell id="3eT2xQA9H0DKfOXw9t8V-104" value="&lt;div&gt;id_pedido&lt;/div&gt;&lt;div&gt;(CP)&lt;/div&gt;" style="ellipse;whiteSpace=wrap;html=1;aspect=fixed;fontStyle=0;gradientColor=none;fillColor=light-dark(#FF00FF,#FF00FF);strokeColor=light-dark(#000000,#000000);fontColor=light-dark(#000000,#000000);" parent="1" vertex="1">
          <mxGeometry x="1749" y="315" width="90" height="90" as="geometry" />
        </mxCell>
        <mxCell id="3eT2xQA9H0DKfOXw9t8V-105" value="fecha" style="ellipse;whiteSpace=wrap;html=1;aspect=fixed;strokeColor=light-dark(#000000,#000000);fontColor=light-dark(#000000,#000000);fillColor=light-dark(#FF99FF,#FF99FF);" parent="1" vertex="1">
          <mxGeometry x="1749" y="675" width="90" height="90" as="geometry" />
        </mxCell>
        <mxCell id="3eT2xQA9H0DKfOXw9t8V-106" value="&lt;div&gt;id_cliente&lt;/div&gt;&lt;div&gt;(CF)&lt;/div&gt;" style="ellipse;whiteSpace=wrap;html=1;aspect=fixed;strokeColor=light-dark(#000000,#000000);fontColor=light-dark(#000000,#000000);fillColor=light-dark(#FF99FF,#FF99FF);" parent="1" vertex="1">
          <mxGeometry x="1749" y="405" width="90" height="90" as="geometry" />
        </mxCell>
        <mxCell id="3eT2xQA9H0DKfOXw9t8V-107" value="total" style="ellipse;whiteSpace=wrap;html=1;aspect=fixed;strokeColor=light-dark(#000000,#000000);fontColor=light-dark(#000000,#000000);fillColor=light-dark(#FF99FF,#FF99FF);" parent="1" vertex="1">
          <mxGeometry x="1749" y="585" width="90" height="90" as="geometry" />
        </mxCell>
        <mxCell id="3eT2xQA9H0DKfOXw9t8V-108" value="&lt;div&gt;id_empleado&lt;/div&gt;&lt;div&gt;_responsable (CF)&lt;/div&gt;" style="ellipse;whiteSpace=wrap;html=1;aspect=fixed;strokeColor=light-dark(#000000,#000000);fontColor=light-dark(#000000,#000000);fillColor=light-dark(#FF99FF,#FF99FF);" parent="1" vertex="1">
          <mxGeometry x="1749" y="495" width="90" height="90" as="geometry" />
        </mxCell>
        <mxCell id="3eT2xQA9H0DKfOXw9t8V-110" value="CLIENTE" style="rounded=0;whiteSpace=wrap;html=1;strokeColor=light-dark(#000000,#000000);fontColor=light-dark(#000000,#000000);fillColor=light-dark(#FF99FF,#FF99FF);" parent="1" vertex="1">
          <mxGeometry x="1554" y="970" width="120" height="60" as="geometry" />
        </mxCell>
        <mxCell id="3eT2xQA9H0DKfOXw9t8V-111" value="&lt;div&gt;id_cliente&lt;/div&gt;&lt;div&gt;(CP)&lt;/div&gt;" style="ellipse;whiteSpace=wrap;html=1;aspect=fixed;fontStyle=0;gradientColor=none;fillColor=light-dark(#FF00FF,#FF99FF);strokeColor=light-dark(#000000,#000000);fontColor=light-dark(#000000,#000000);" parent="1" vertex="1">
          <mxGeometry x="1253.75" y="1070" width="90" height="90" as="geometry" />
        </mxCell>
        <mxCell id="3eT2xQA9H0DKfOXw9t8V-112" value="email" style="ellipse;whiteSpace=wrap;html=1;aspect=fixed;strokeColor=light-dark(#000000,#000000);fontColor=light-dark(#000000,#000000);fillColor=light-dark(#FF99FF,#FF99FF);" parent="1" vertex="1">
          <mxGeometry x="1524.25" y="1070" width="90" height="90" as="geometry" />
        </mxCell>
        <mxCell id="3eT2xQA9H0DKfOXw9t8V-113" value="nombre" style="ellipse;whiteSpace=wrap;html=1;aspect=fixed;strokeColor=light-dark(#000000,#000000);fontColor=light-dark(#000000,#000000);fillColor=light-dark(#FF99FF,#FF99FF);" parent="1" vertex="1">
          <mxGeometry x="1343.75" y="1070" width="90" height="90" as="geometry" />
        </mxCell>
        <mxCell id="3eT2xQA9H0DKfOXw9t8V-114" value="telÃ©fono" style="ellipse;whiteSpace=wrap;html=1;aspect=fixed;strokeColor=light-dark(#000000,#000000);fontColor=light-dark(#000000,#000000);fillColor=light-dark(#FF99FF,#FF99FF);" parent="1" vertex="1">
          <mxGeometry x="1614.25" y="1070" width="90" height="90" as="geometry" />
        </mxCell>
        <mxCell id="3eT2xQA9H0DKfOXw9t8V-115" value="fecha_&lt;div&gt;ingreso_plus&lt;/div&gt;" style="ellipse;whiteSpace=wrap;html=1;aspect=fixed;strokeColor=light-dark(#000000,#000000);fontColor=light-dark(#000000,#000000);fillColor=light-dark(#FF99FF,#FF99FF);" parent="1" vertex="1">
          <mxGeometry x="1794.25" y="1070" width="90" height="90" as="geometry" />
        </mxCell>
        <mxCell id="3eT2xQA9H0DKfOXw9t8V-116" value="PRODUCTO" style="rounded=0;whiteSpace=wrap;html=1;fillColor=light-dark(#FF99FF,#FF99FF);fontColor=light-dark(#000000,#000000);strokeColor=light-dark(#000000,#000000);" parent="1" vertex="1">
          <mxGeometry x="-5" y="508.75" width="120" height="60" as="geometry" />
        </mxCell>
        <mxCell id="3eT2xQA9H0DKfOXw9t8V-117" value="&lt;div&gt;id_producto&lt;/div&gt;&lt;div&gt;(CP)&lt;/div&gt;" style="ellipse;whiteSpace=wrap;html=1;aspect=fixed;fontStyle=0;fillColor=light-dark(#FF00FF,#FF00FF);fontColor=light-dark(#000000,#000000);strokeColor=light-dark(#000000,#000000);" parent="1" vertex="1">
          <mxGeometry x="-170" y="610" width="90" height="90" as="geometry" />
        </mxCell>
        <mxCell id="3eT2xQA9H0DKfOXw9t8V-118" value="nombre" style="ellipse;whiteSpace=wrap;html=1;aspect=fixed;fillColor=light-dark(#FF99FF,#FF99FF);fontColor=light-dark(#000000,#000000);strokeColor=light-dark(#000000,#000000);" parent="1" vertex="1">
          <mxGeometry x="-80" y="610" width="90" height="90" as="geometry" />
        </mxCell>
        <mxCell id="3eT2xQA9H0DKfOXw9t8V-119" value="descripcion" style="ellipse;whiteSpace=wrap;html=1;aspect=fixed;fillColor=light-dark(#FF99FF,#FF99FF);fontColor=light-dark(#000000,#000000);strokeColor=light-dark(#000000,#000000);" parent="1" vertex="1">
          <mxGeometry x="10" y="610" width="90" height="90" as="geometry" />
        </mxCell>
        <mxCell id="3eT2xQA9H0DKfOXw9t8V-120" value="&lt;div&gt;tipo&lt;/div&gt;" style="ellipse;whiteSpace=wrap;html=1;aspect=fixed;fillColor=light-dark(#FF99FF,#FF99FF);fontColor=light-dark(#000000,#000000);strokeColor=light-dark(#000000,#000000);" parent="1" vertex="1">
          <mxGeometry x="100" y="610" width="90" height="90" as="geometry" />
        </mxCell>
        <mxCell id="3eT2xQA9H0DKfOXw9t8V-146" value="ZONA" style="shape=process;whiteSpace=wrap;html=1;backgroundOutline=1;fillColor=light-dark(#FF99FF,#FF99FF);fontColor=light-dark(#000000,#000000);strokeColor=light-dark(#000000,#000000);" parent="1" vertex="1">
          <mxGeometry x="354" y="290" width="120" height="60" as="geometry" />
        </mxCell>
        <mxCell id="3eT2xQA9H0DKfOXw9t8V-147" value="" style="endArrow=none;html=1;rounded=0;fontSize=12;startSize=8;endSize=8;curved=1;exitX=1;exitY=0.5;exitDx=0;exitDy=0;entryX=0;entryY=0.5;entryDx=0;entryDy=0;strokeColor=light-dark(#000000,#000000);" parent="1" source="3eT2xQA9H0DKfOXw9t8V-146" target="3eT2xQA9H0DKfOXw9t8V-149" edge="1">
          <mxGeometry width="50" height="50" relative="1" as="geometry">
            <mxPoint x="750" y="350" as="sourcePoint" />
            <mxPoint x="640" y="320" as="targetPoint" />
          </mxGeometry>
        </mxCell>
        <mxCell id="3eT2xQA9H0DKfOXw9t8V-214" value="1:1" style="edgeLabel;html=1;align=center;verticalAlign=middle;resizable=0;points=[];fontSize=12;" parent="3eT2xQA9H0DKfOXw9t8V-147" vertex="1" connectable="0">
          <mxGeometry x="-0.6454" y="-1" relative="1" as="geometry">
            <mxPoint x="371" y="-8" as="offset" />
          </mxGeometry>
        </mxCell>
        <mxCell id="3eT2xQA9H0DKfOXw9t8V-148" value="" style="endArrow=none;html=1;rounded=0;fontSize=12;startSize=8;endSize=8;curved=1;entryX=0;entryY=0.5;entryDx=0;entryDy=0;exitX=1;exitY=0.5;exitDx=0;exitDy=0;strokeColor=light-dark(#000000,#000000);" parent="1" source="3eT2xQA9H0DKfOXw9t8V-149" target="3eT2xQA9H0DKfOXw9t8V-71" edge="1">
          <mxGeometry width="50" height="50" relative="1" as="geometry">
            <mxPoint x="760" y="320" as="sourcePoint" />
            <mxPoint x="870" y="320" as="targetPoint" />
          </mxGeometry>
        </mxCell>
        <mxCell id="3eT2xQA9H0DKfOXw9t8V-215" value="0:N" style="edgeLabel;html=1;align=center;verticalAlign=middle;resizable=0;points=[];fontSize=12;" parent="3eT2xQA9H0DKfOXw9t8V-148" vertex="1" connectable="0">
          <mxGeometry x="0.6" y="-3" relative="1" as="geometry">
            <mxPoint x="-368" y="-18" as="offset" />
          </mxGeometry>
        </mxCell>
        <mxCell id="3eT2xQA9H0DKfOXw9t8V-149" value="&lt;div&gt;&lt;b&gt;ID&lt;/b&gt;&lt;/div&gt;&lt;div&gt;&lt;br&gt;&lt;/div&gt;CONTIENE" style="rhombus;whiteSpace=wrap;html=1;fillColor=light-dark(#FFFF99,#FFFF99);fontColor=light-dark(#000000,#000000);strokeColor=light-dark(#000000,#000000);" parent="1" vertex="1">
          <mxGeometry x="615" y="280" width="130" height="80" as="geometry" />
        </mxCell>
        <mxCell id="3eT2xQA9H0DKfOXw9t8V-150" value="&lt;div&gt;precio_&lt;/div&gt;&lt;div&gt;unitario&lt;/div&gt;" style="ellipse;whiteSpace=wrap;html=1;aspect=fixed;fillColor=light-dark(#FF99FF,#FF99FF);fontColor=light-dark(#000000,#000000);strokeColor=light-dark(#000000,#000000);" parent="1" vertex="1">
          <mxGeometry x="190" y="610" width="90" height="90" as="geometry" />
        </mxCell>
        <mxCell id="3eT2xQA9H0DKfOXw9t8V-151" value="apellidos" style="ellipse;whiteSpace=wrap;html=1;aspect=fixed;strokeColor=light-dark(#000000,#000000);fontColor=light-dark(#000000,#000000);fillColor=light-dark(#FF99FF,#FF99FF);" parent="1" vertex="1">
          <mxGeometry x="1433.75" y="1070" width="90" height="90" as="geometry" />
        </mxCell>
        <mxCell id="3eT2xQA9H0DKfOXw9t8V-152" value="es_tajinaste_&lt;div&gt;plus&lt;/div&gt;" style="ellipse;whiteSpace=wrap;html=1;aspect=fixed;strokeColor=light-dark(#000000,#000000);fontColor=light-dark(#000000,#000000);fillColor=light-dark(#FF99FF,#FF99FF);" parent="1" vertex="1">
          <mxGeometry x="1704.25" y="1070" width="90" height="90" as="geometry" />
        </mxCell>
        <mxCell id="3eT2xQA9H0DKfOXw9t8V-162" value="&lt;b&gt;DETALLE&lt;/b&gt;" style="rhombus;whiteSpace=wrap;html=1;fillColor=light-dark(#FFFF99,#FFFF99);fontColor=light-dark(#000000,#000000);strokeColor=light-dark(#000000,#000000);" parent="1" vertex="1">
          <mxGeometry x="600" y="501.25" width="130" height="80" as="geometry" />
        </mxCell>
        <mxCell id="3eT2xQA9H0DKfOXw9t8V-163" value="" style="endArrow=none;html=1;rounded=0;fontSize=12;startSize=8;endSize=8;curved=1;entryX=1;entryY=0.5;entryDx=0;entryDy=0;exitX=0;exitY=0.5;exitDx=0;exitDy=0;strokeColor=light-dark(#000000,#000000);" parent="1" source="3eT2xQA9H0DKfOXw9t8V-162" target="3eT2xQA9H0DKfOXw9t8V-116" edge="1">
          <mxGeometry width="50" height="50" relative="1" as="geometry">
            <mxPoint x="390" y="540" as="sourcePoint" />
            <mxPoint x="475" y="670" as="targetPoint" />
          </mxGeometry>
        </mxCell>
        <mxCell id="3eT2xQA9H0DKfOXw9t8V-211" value="1:N" style="edgeLabel;html=1;align=center;verticalAlign=middle;resizable=0;points=[];fontSize=12;" parent="3eT2xQA9H0DKfOXw9t8V-163" vertex="1" connectable="0">
          <mxGeometry x="0.868" y="2" relative="1" as="geometry">
            <mxPoint x="-1" as="offset" />
          </mxGeometry>
        </mxCell>
        <mxCell id="3eT2xQA9H0DKfOXw9t8V-164" value="" style="endArrow=none;html=1;rounded=0;fontSize=12;startSize=8;endSize=8;curved=1;entryX=0;entryY=0.5;entryDx=0;entryDy=0;exitX=1;exitY=0.5;exitDx=0;exitDy=0;strokeColor=light-dark(#000000,#000000);" parent="1" source="3eT2xQA9H0DKfOXw9t8V-162" target="3eT2xQA9H0DKfOXw9t8V-103" edge="1">
          <mxGeometry width="50" height="50" relative="1" as="geometry">
            <mxPoint x="650" y="720" as="sourcePoint" />
            <mxPoint x="700" y="670" as="targetPoint" />
          </mxGeometry>
        </mxCell>
        <mxCell id="3eT2xQA9H0DKfOXw9t8V-210" value="1:N" style="edgeLabel;html=1;align=center;verticalAlign=middle;resizable=0;points=[];fontSize=12;" parent="3eT2xQA9H0DKfOXw9t8V-164" vertex="1" connectable="0">
          <mxGeometry x="0.9345" y="5" relative="1" as="geometry">
            <mxPoint x="-1" as="offset" />
          </mxGeometry>
        </mxCell>
        <mxCell id="3eT2xQA9H0DKfOXw9t8V-165" value="" style="endArrow=none;html=1;rounded=0;fontSize=12;startSize=8;endSize=8;curved=1;entryX=0.5;entryY=1;entryDx=0;entryDy=0;exitX=0.5;exitY=0;exitDx=0;exitDy=0;strokeColor=light-dark(#000000,#000000);" parent="1" source="3eT2xQA9H0DKfOXw9t8V-168" target="3eT2xQA9H0DKfOXw9t8V-162" edge="1">
          <mxGeometry width="50" height="50" relative="1" as="geometry">
            <mxPoint x="18.25" y="1030" as="sourcePoint" />
            <mxPoint x="79" y="1030" as="targetPoint" />
          </mxGeometry>
        </mxCell>
        <mxCell id="3eT2xQA9H0DKfOXw9t8V-166" value="" style="endArrow=none;html=1;rounded=0;fontSize=12;startSize=8;endSize=8;curved=1;entryX=0.5;entryY=1;entryDx=0;entryDy=0;exitX=0.5;exitY=0;exitDx=0;exitDy=0;strokeColor=light-dark(#000000,#000000);" parent="1" source="3eT2xQA9H0DKfOXw9t8V-169" target="3eT2xQA9H0DKfOXw9t8V-162" edge="1">
          <mxGeometry width="50" height="50" relative="1" as="geometry">
            <mxPoint x="109" y="1030" as="sourcePoint" />
            <mxPoint x="79" y="1040" as="targetPoint" />
          </mxGeometry>
        </mxCell>
        <mxCell id="3eT2xQA9H0DKfOXw9t8V-168" value="&lt;div&gt;precio_&lt;/div&gt;&lt;div&gt;unitario_&lt;/div&gt;&lt;div&gt;linea&lt;/div&gt;" style="ellipse;whiteSpace=wrap;html=1;aspect=fixed;strokeColor=light-dark(#000000,#000000);fontColor=light-dark(#000000,#000000);fillColor=light-dark(#FF99FF,#FF99FF);" parent="1" vertex="1">
          <mxGeometry x="549" y="620" width="90" height="90" as="geometry" />
        </mxCell>
        <mxCell id="3eT2xQA9H0DKfOXw9t8V-169" value="cantidad" style="ellipse;whiteSpace=wrap;html=1;aspect=fixed;strokeColor=light-dark(#000000,#000000);fontColor=light-dark(#000000,#000000);fillColor=light-dark(#FF99FF,#FF99FF);" parent="1" vertex="1">
          <mxGeometry x="690" y="620" width="90" height="90" as="geometry" />
        </mxCell>
        <mxCell id="3eT2xQA9H0DKfOXw9t8V-170" value="&lt;div&gt;PRODUCTIVIDAD_&lt;/div&gt;&lt;div&gt;EMPLEADO&lt;/div&gt;" style="rounded=0;whiteSpace=wrap;html=1;strokeColor=light-dark(#000000,#000000);fontColor=light-dark(#000000,#000000);fillColor=light-dark(#FF99FF,#FF99FF);" parent="1" vertex="1">
          <mxGeometry x="2035" y="200" width="120" height="60" as="geometry" />
        </mxCell>
        <mxCell id="3eT2xQA9H0DKfOXw9t8V-171" value="&lt;div&gt;id_prod_&lt;/div&gt;&lt;div&gt;empleado&lt;/div&gt;&lt;div&gt;(CP)&lt;/div&gt;" style="ellipse;whiteSpace=wrap;html=1;aspect=fixed;fontStyle=0;gradientColor=none;fillColor=light-dark(#FF00FF,#FF00FF);strokeColor=light-dark(#000000,#000000);fontColor=light-dark(#000000,#000000);" parent="1" vertex="1">
          <mxGeometry x="1870" y="300" width="90" height="90" as="geometry" />
        </mxCell>
        <mxCell id="3eT2xQA9H0DKfOXw9t8V-172" value="periodo" style="ellipse;whiteSpace=wrap;html=1;aspect=fixed;strokeColor=light-dark(#000000,#000000);fontColor=light-dark(#000000,#000000);fillColor=light-dark(#FF99FF,#FF99FF);" parent="1" vertex="1">
          <mxGeometry x="2050" y="300" width="90" height="90" as="geometry" />
        </mxCell>
        <mxCell id="3eT2xQA9H0DKfOXw9t8V-173" value="&lt;div&gt;id_empleado&lt;/div&gt;&lt;div&gt;(CF)&lt;/div&gt;" style="ellipse;whiteSpace=wrap;html=1;aspect=fixed;strokeColor=light-dark(#000000,#000000);fontColor=light-dark(#000000,#000000);fillColor=light-dark(#FF99FF,#FF99FF);" parent="1" vertex="1">
          <mxGeometry x="1960" y="300" width="90" height="90" as="geometry" />
        </mxCell>
        <mxCell id="3eT2xQA9H0DKfOXw9t8V-175" value="ventas_&lt;div&gt;monetarias&lt;/div&gt;" style="ellipse;whiteSpace=wrap;html=1;aspect=fixed;strokeColor=light-dark(#000000,#000000);fontColor=light-dark(#000000,#000000);fillColor=light-dark(#FF99FF,#FF99FF);" parent="1" vertex="1">
          <mxGeometry x="2140" y="300" width="90" height="90" as="geometry" />
        </mxCell>
        <mxCell id="3eT2xQA9H0DKfOXw9t8V-176" value="&lt;div&gt;pedidos_&lt;/div&gt;&lt;div&gt;gestionados&lt;/div&gt;" style="ellipse;whiteSpace=wrap;html=1;aspect=fixed;strokeColor=light-dark(#000000,#000000);fontColor=light-dark(#000000,#000000);fillColor=light-dark(#FF99FF,#FF99FF);" parent="1" vertex="1">
          <mxGeometry x="2230" y="300" width="90" height="90" as="geometry" />
        </mxCell>
        <mxCell id="3eT2xQA9H0DKfOXw9t8V-177" value="&lt;div&gt;&lt;b&gt;STOCK/&lt;/b&gt;&lt;/div&gt;&lt;div&gt;&lt;b&gt;UBICACION&lt;/b&gt;&lt;/div&gt;" style="rhombus;whiteSpace=wrap;html=1;fillColor=light-dark(#FFFF99,#FFFF99);fontColor=light-dark(#000000,#000000);strokeColor=light-dark(#000000,#000000);" parent="1" vertex="1">
          <mxGeometry x="-10" y="280" width="130" height="80" as="geometry" />
        </mxCell>
        <mxCell id="3eT2xQA9H0DKfOXw9t8V-178" value="" style="endArrow=none;html=1;rounded=0;fontSize=12;startSize=8;endSize=8;curved=1;entryX=0.5;entryY=1;entryDx=0;entryDy=0;exitX=0.5;exitY=0;exitDx=0;exitDy=0;strokeColor=light-dark(#000000,#000000);" parent="1" source="3eT2xQA9H0DKfOXw9t8V-116" target="3eT2xQA9H0DKfOXw9t8V-177" edge="1">
          <mxGeometry width="50" height="50" relative="1" as="geometry">
            <mxPoint x="10" y="580" as="sourcePoint" />
            <mxPoint x="60" y="530" as="targetPoint" />
          </mxGeometry>
        </mxCell>
        <mxCell id="3eT2xQA9H0DKfOXw9t8V-180" value="0:N" style="edgeLabel;html=1;align=center;verticalAlign=middle;resizable=0;points=[];fontSize=12;" parent="3eT2xQA9H0DKfOXw9t8V-178" vertex="1" connectable="0">
          <mxGeometry x="-0.8451" y="-1" relative="1" as="geometry">
            <mxPoint x="13" y="-6" as="offset" />
          </mxGeometry>
        </mxCell>
        <mxCell id="3eT2xQA9H0DKfOXw9t8V-179" value="" style="endArrow=none;html=1;rounded=0;fontSize=12;startSize=8;endSize=8;curved=1;entryX=1;entryY=0.5;entryDx=0;entryDy=0;exitX=0;exitY=0.5;exitDx=0;exitDy=0;strokeColor=light-dark(#000000,#000000);" parent="1" source="3eT2xQA9H0DKfOXw9t8V-146" target="3eT2xQA9H0DKfOXw9t8V-177" edge="1">
          <mxGeometry width="50" height="50" relative="1" as="geometry">
            <mxPoint x="-60" y="390" as="sourcePoint" />
            <mxPoint x="118" y="330" as="targetPoint" />
          </mxGeometry>
        </mxCell>
        <mxCell id="3eT2xQA9H0DKfOXw9t8V-181" value="0:N" style="edgeLabel;html=1;align=center;verticalAlign=middle;resizable=0;points=[];fontSize=12;" parent="3eT2xQA9H0DKfOXw9t8V-179" vertex="1" connectable="0">
          <mxGeometry x="-0.8632" relative="1" as="geometry">
            <mxPoint x="-4" y="-15" as="offset" />
          </mxGeometry>
        </mxCell>
        <mxCell id="3eT2xQA9H0DKfOXw9t8V-182" value="" style="endArrow=none;html=1;rounded=0;fontSize=12;startSize=8;endSize=8;curved=1;entryX=0.5;entryY=0;entryDx=0;entryDy=0;exitX=1;exitY=1;exitDx=0;exitDy=0;strokeColor=light-dark(#000000,#000000);" parent="1" source="3eT2xQA9H0DKfOXw9t8V-184" target="3eT2xQA9H0DKfOXw9t8V-177" edge="1">
          <mxGeometry width="50" height="50" relative="1" as="geometry">
            <mxPoint x="30" y="250" as="sourcePoint" />
            <mxPoint x="146.5" y="510" as="targetPoint" />
          </mxGeometry>
        </mxCell>
        <mxCell id="3eT2xQA9H0DKfOXw9t8V-183" value="" style="endArrow=none;html=1;rounded=0;fontSize=12;startSize=8;endSize=8;curved=1;entryX=0.5;entryY=0;entryDx=0;entryDy=0;strokeColor=light-dark(#000000,#000000);" parent="1" target="3eT2xQA9H0DKfOXw9t8V-177" edge="1">
          <mxGeometry width="50" height="50" relative="1" as="geometry">
            <mxPoint x="80" y="250" as="sourcePoint" />
            <mxPoint x="120" y="250" as="targetPoint" />
          </mxGeometry>
        </mxCell>
        <mxCell id="3eT2xQA9H0DKfOXw9t8V-184" value="&lt;div&gt;cantidad_&lt;/div&gt;&lt;div&gt;disponible&lt;/div&gt;" style="ellipse;whiteSpace=wrap;html=1;aspect=fixed;fontColor=light-dark(#000000,#000000);fillColor=light-dark(#FF99FF,#FF99FF);strokeColor=light-dark(#000000,#000000);" parent="1" vertex="1">
          <mxGeometry x="-50" y="170" width="90" height="90" as="geometry" />
        </mxCell>
        <mxCell id="3eT2xQA9H0DKfOXw9t8V-185" value="fecha_ultima_&lt;div&gt;actualizacion&lt;/div&gt;" style="ellipse;whiteSpace=wrap;html=1;aspect=fixed;fontColor=light-dark(#000000,#000000);fillColor=light-dark(#FF99FF,#FF99FF);strokeColor=light-dark(#000000,#000000);" parent="1" vertex="1">
          <mxGeometry x="70" y="170" width="90" height="90" as="geometry" />
        </mxCell>
        <mxCell id="ufethtAzfcj6kQPmXHgi-9" value="" style="edgeStyle=orthogonalEdgeStyle;rounded=0;orthogonalLoop=1;jettySize=auto;html=1;" edge="1" parent="1" source="3eT2xQA9H0DKfOXw9t8V-186" target="3eT2xQA9H0DKfOXw9t8V-146">
          <mxGeometry relative="1" as="geometry" />
        </mxCell>
        <mxCell id="3eT2xQA9H0DKfOXw9t8V-186" value="&lt;div&gt;&lt;b&gt;ASIGNACIÃN&lt;/b&gt;&lt;/div&gt;" style="rhombus;whiteSpace=wrap;html=1;fillColor=light-dark(#FFFF99,#FFFF99);fontColor=light-dark(#000000,#000000);strokeColor=light-dark(#000000,#000000);" parent="1" vertex="1">
          <mxGeometry x="349" y="140" width="130" height="80" as="geometry" />
        </mxCell>
        <mxCell id="3eT2xQA9H0DKfOXw9t8V-187" value="" style="endArrow=none;html=1;rounded=0;fontSize=12;startSize=8;endSize=8;curved=1;entryX=1;entryY=0.5;entryDx=0;entryDy=0;exitX=0;exitY=0.5;exitDx=0;exitDy=0;strokeColor=light-dark(#000000,#000000);" parent="1" source="3eT2xQA9H0DKfOXw9t8V-83" target="3eT2xQA9H0DKfOXw9t8V-186" edge="1">
          <mxGeometry width="50" height="50" relative="1" as="geometry">
            <mxPoint x="95" y="260" as="sourcePoint" />
            <mxPoint x="70" y="290" as="targetPoint" />
          </mxGeometry>
        </mxCell>
        <mxCell id="3eT2xQA9H0DKfOXw9t8V-190" value="0:N" style="edgeLabel;html=1;align=center;verticalAlign=middle;resizable=0;points=[];fontSize=12;" parent="3eT2xQA9H0DKfOXw9t8V-187" vertex="1" connectable="0">
          <mxGeometry x="-0.5143" y="1" relative="1" as="geometry">
            <mxPoint x="229" y="-1" as="offset" />
          </mxGeometry>
        </mxCell>
        <mxCell id="3eT2xQA9H0DKfOXw9t8V-188" value="" style="endArrow=none;html=1;rounded=0;fontSize=12;startSize=8;endSize=8;curved=1;entryX=0.5;entryY=0;entryDx=0;entryDy=0;exitX=0.5;exitY=1;exitDx=0;exitDy=0;strokeColor=light-dark(#000000,#000000);" parent="1" source="3eT2xQA9H0DKfOXw9t8V-186" target="3eT2xQA9H0DKfOXw9t8V-146" edge="1">
          <mxGeometry width="50" height="50" relative="1" as="geometry">
            <mxPoint x="410" y="120" as="sourcePoint" />
            <mxPoint x="410" y="190" as="targetPoint" />
          </mxGeometry>
        </mxCell>
        <mxCell id="3eT2xQA9H0DKfOXw9t8V-189" value="0:N" style="edgeLabel;html=1;align=center;verticalAlign=middle;resizable=0;points=[];fontSize=12;" parent="3eT2xQA9H0DKfOXw9t8V-188" vertex="1" connectable="0">
          <mxGeometry x="0.6286" y="1" relative="1" as="geometry">
            <mxPoint as="offset" />
          </mxGeometry>
        </mxCell>
        <mxCell id="3eT2xQA9H0DKfOXw9t8V-191" value="&lt;div&gt;fecha_&lt;/div&gt;&lt;div&gt;inicio&lt;/div&gt;" style="ellipse;whiteSpace=wrap;html=1;aspect=fixed;fillColor=light-dark(#FF99FF,#FF99FF);fontColor=light-dark(#000000,#000000);strokeColor=light-dark(#000000,#000000);" parent="1" vertex="1">
          <mxGeometry x="459" y="30" width="60" height="60" as="geometry" />
        </mxCell>
        <mxCell id="3eT2xQA9H0DKfOXw9t8V-192" value="fecha_&lt;div&gt;fin&lt;/div&gt;" style="ellipse;whiteSpace=wrap;html=1;aspect=fixed;fillColor=light-dark(#FF99FF,#FF99FF);fontColor=light-dark(#000000,#000000);strokeColor=light-dark(#000000,#000000);" parent="1" vertex="1">
          <mxGeometry x="384" y="30" width="60" height="60" as="geometry" />
        </mxCell>
        <mxCell id="3eT2xQA9H0DKfOXw9t8V-193" value="puesto" style="ellipse;whiteSpace=wrap;html=1;aspect=fixed;fillColor=light-dark(#FF99FF,#FF99FF);fontColor=light-dark(#000000,#000000);strokeColor=light-dark(#000000,#000000);" parent="1" vertex="1">
          <mxGeometry x="309" y="30" width="60" height="60" as="geometry" />
        </mxCell>
        <mxCell id="3eT2xQA9H0DKfOXw9t8V-195" value="" style="endArrow=none;html=1;rounded=0;fontSize=12;startSize=8;endSize=8;curved=1;entryX=0.5;entryY=1;entryDx=0;entryDy=0;exitX=0.5;exitY=0;exitDx=0;exitDy=0;strokeColor=light-dark(#000000,#000000);" parent="1" source="3eT2xQA9H0DKfOXw9t8V-186" target="3eT2xQA9H0DKfOXw9t8V-191" edge="1">
          <mxGeometry width="50" height="50" relative="1" as="geometry">
            <mxPoint x="499" y="179" as="sourcePoint" />
            <mxPoint x="639" y="179" as="targetPoint" />
          </mxGeometry>
        </mxCell>
        <mxCell id="3eT2xQA9H0DKfOXw9t8V-196" value="" style="endArrow=none;html=1;rounded=0;fontSize=12;startSize=8;endSize=8;curved=1;entryX=0.5;entryY=1;entryDx=0;entryDy=0;exitX=0.5;exitY=0;exitDx=0;exitDy=0;strokeColor=light-dark(#000000,#000000);" parent="1" source="3eT2xQA9H0DKfOXw9t8V-186" target="3eT2xQA9H0DKfOXw9t8V-192" edge="1">
          <mxGeometry width="50" height="50" relative="1" as="geometry">
            <mxPoint x="480" y="260" as="sourcePoint" />
            <mxPoint x="526" y="150" as="targetPoint" />
          </mxGeometry>
        </mxCell>
        <mxCell id="3eT2xQA9H0DKfOXw9t8V-197" value="" style="endArrow=none;html=1;rounded=0;fontSize=12;startSize=8;endSize=8;curved=1;entryX=0.5;entryY=1;entryDx=0;entryDy=0;exitX=0.5;exitY=0;exitDx=0;exitDy=0;strokeColor=light-dark(#000000,#000000);" parent="1" source="3eT2xQA9H0DKfOXw9t8V-186" target="3eT2xQA9H0DKfOXw9t8V-193" edge="1">
          <mxGeometry width="50" height="50" relative="1" as="geometry">
            <mxPoint x="490" y="200" as="sourcePoint" />
            <mxPoint x="536" y="160" as="targetPoint" />
          </mxGeometry>
        </mxCell>
        <mxCell id="3eT2xQA9H0DKfOXw9t8V-199" value="&lt;div&gt;HACE&lt;/div&gt;" style="rhombus;whiteSpace=wrap;html=1;fillColor=light-dark(#FFFF99,#FFFF99);fontColor=light-dark(#000000,#000000);strokeColor=light-dark(#000000,#000000);" parent="1" vertex="1">
          <mxGeometry x="1549" y="740" width="130" height="80" as="geometry" />
        </mxCell>
        <mxCell id="3eT2xQA9H0DKfOXw9t8V-200" value="" style="endArrow=none;html=1;rounded=0;fontSize=12;startSize=8;endSize=8;curved=1;entryX=0.5;entryY=0;entryDx=0;entryDy=0;exitX=0.5;exitY=1;exitDx=0;exitDy=0;strokeColor=light-dark(#000000,#000000);" parent="1" source="3eT2xQA9H0DKfOXw9t8V-199" target="3eT2xQA9H0DKfOXw9t8V-110" edge="1">
          <mxGeometry width="50" height="50" relative="1" as="geometry">
            <mxPoint x="1300.25" y="1000" as="sourcePoint" />
            <mxPoint x="1006" y="800" as="targetPoint" />
          </mxGeometry>
        </mxCell>
        <mxCell id="3eT2xQA9H0DKfOXw9t8V-202" value="0:N" style="edgeLabel;html=1;align=center;verticalAlign=middle;resizable=0;points=[];fontSize=12;" parent="3eT2xQA9H0DKfOXw9t8V-200" vertex="1" connectable="0">
          <mxGeometry x="0.8845" relative="1" as="geometry">
            <mxPoint x="10" y="-376" as="offset" />
          </mxGeometry>
        </mxCell>
        <mxCell id="3eT2xQA9H0DKfOXw9t8V-201" value="" style="endArrow=none;html=1;rounded=0;fontSize=12;startSize=8;endSize=8;curved=1;entryX=0.5;entryY=0;entryDx=0;entryDy=0;exitX=0.5;exitY=1;exitDx=0;exitDy=0;strokeColor=light-dark(#000000,#000000);" parent="1" source="3eT2xQA9H0DKfOXw9t8V-103" target="3eT2xQA9H0DKfOXw9t8V-199" edge="1">
          <mxGeometry width="50" height="50" relative="1" as="geometry">
            <mxPoint x="1390" y="520" as="sourcePoint" />
            <mxPoint x="1661" y="530" as="targetPoint" />
          </mxGeometry>
        </mxCell>
        <mxCell id="3eT2xQA9H0DKfOXw9t8V-203" value="1:1" style="edgeLabel;html=1;align=center;verticalAlign=middle;resizable=0;points=[];fontSize=12;" parent="3eT2xQA9H0DKfOXw9t8V-201" vertex="1" connectable="0">
          <mxGeometry x="-0.8169" y="1" relative="1" as="geometry">
            <mxPoint x="-1" y="364" as="offset" />
          </mxGeometry>
        </mxCell>
        <mxCell id="3eT2xQA9H0DKfOXw9t8V-204" value="GESTIONA" style="rhombus;whiteSpace=wrap;html=1;fillColor=light-dark(#FFFF99,#FFFF99);fontColor=light-dark(#000000,#000000);strokeColor=light-dark(#000000,#000000);" parent="1" vertex="1">
          <mxGeometry x="1549" y="320" width="130" height="80" as="geometry" />
        </mxCell>
        <mxCell id="3eT2xQA9H0DKfOXw9t8V-205" value="" style="endArrow=none;html=1;rounded=0;fontSize=12;startSize=8;endSize=8;curved=1;entryX=0.5;entryY=1;entryDx=0;entryDy=0;exitX=0.5;exitY=0;exitDx=0;exitDy=0;strokeColor=light-dark(#000000,#000000);" parent="1" source="3eT2xQA9H0DKfOXw9t8V-204" target="3eT2xQA9H0DKfOXw9t8V-83" edge="1">
          <mxGeometry width="50" height="50" relative="1" as="geometry">
            <mxPoint x="650" y="690" as="sourcePoint" />
            <mxPoint x="700" y="610" as="targetPoint" />
          </mxGeometry>
        </mxCell>
        <mxCell id="3eT2xQA9H0DKfOXw9t8V-207" value="0:N" style="edgeLabel;html=1;align=center;verticalAlign=middle;resizable=0;points=[];fontSize=12;" parent="3eT2xQA9H0DKfOXw9t8V-205" vertex="1" connectable="0">
          <mxGeometry x="0.6182" y="-1" relative="1" as="geometry">
            <mxPoint x="9" y="264" as="offset" />
          </mxGeometry>
        </mxCell>
        <mxCell id="3eT2xQA9H0DKfOXw9t8V-206" value="" style="endArrow=none;html=1;rounded=0;fontSize=12;startSize=8;endSize=8;curved=1;exitX=0.5;exitY=0;exitDx=0;exitDy=0;entryX=0.5;entryY=1;entryDx=0;entryDy=0;strokeColor=light-dark(#000000,#000000);" parent="1" source="3eT2xQA9H0DKfOXw9t8V-103" target="3eT2xQA9H0DKfOXw9t8V-204" edge="1">
          <mxGeometry width="50" height="50" relative="1" as="geometry">
            <mxPoint x="1620" y="370" as="sourcePoint" />
            <mxPoint x="1730" y="420" as="targetPoint" />
          </mxGeometry>
        </mxCell>
        <mxCell id="3eT2xQA9H0DKfOXw9t8V-209" value="1:1" style="edgeLabel;html=1;align=center;verticalAlign=middle;resizable=0;points=[];fontSize=12;" parent="3eT2xQA9H0DKfOXw9t8V-206" vertex="1" connectable="0">
          <mxGeometry x="-0.5455" y="-5" relative="1" as="geometry">
            <mxPoint x="-5" y="-256" as="offset" />
          </mxGeometry>
        </mxCell>
        <mxCell id="Xw_29yAICeWVH9qiQ2mz-1" value="" style="endArrow=none;html=1;rounded=0;fontSize=12;startSize=8;endSize=8;curved=1;exitX=0.5;exitY=1;exitDx=0;exitDy=0;entryX=0.5;entryY=0;entryDx=0;entryDy=0;strokeColor=light-dark(#000000,#000000);" parent="1" source="3eT2xQA9H0DKfOXw9t8V-91" target="ufethtAzfcj6kQPmXHgi-18" edge="1">
          <mxGeometry width="50" height="50" relative="1" as="geometry">
            <mxPoint x="332.5" y="155" as="sourcePoint" />
            <mxPoint x="62.5" y="25" as="targetPoint" />
          </mxGeometry>
        </mxCell>
        <mxCell id="Xw_29yAICeWVH9qiQ2mz-2" value="" style="endArrow=none;html=1;rounded=0;fontSize=12;startSize=8;endSize=8;curved=1;entryX=0.5;entryY=1;entryDx=0;entryDy=0;exitX=0.5;exitY=0;exitDx=0;exitDy=0;strokeColor=light-dark(#000000,#000000);" parent="1" source="ufethtAzfcj6kQPmXHgi-18" target="3eT2xQA9H0DKfOXw9t8V-94" edge="1">
          <mxGeometry width="50" height="50" relative="1" as="geometry">
            <mxPoint x="62.5" y="25" as="sourcePoint" />
            <mxPoint x="382.5" y="105" as="targetPoint" />
          </mxGeometry>
        </mxCell>
        <mxCell id="Xw_29yAICeWVH9qiQ2mz-3" value="" style="endArrow=none;html=1;rounded=0;fontSize=12;startSize=8;endSize=8;curved=1;exitX=0.5;exitY=1;exitDx=0;exitDy=0;entryX=0.5;entryY=0;entryDx=0;entryDy=0;strokeColor=light-dark(#000000,#000000);" parent="1" source="3eT2xQA9H0DKfOXw9t8V-93" target="ufethtAzfcj6kQPmXHgi-18" edge="1">
          <mxGeometry width="50" height="50" relative="1" as="geometry">
            <mxPoint x="332.5" y="155" as="sourcePoint" />
            <mxPoint x="62.5" y="25" as="targetPoint" />
          </mxGeometry>
        </mxCell>
        <mxCell id="Xw_29yAICeWVH9qiQ2mz-4" value="" style="endArrow=none;html=1;rounded=0;fontSize=12;startSize=8;endSize=8;curved=1;exitX=0.5;exitY=0;exitDx=0;exitDy=0;entryX=0.5;entryY=1;entryDx=0;entryDy=0;strokeColor=light-dark(#000000,#000000);" parent="1" source="ufethtAzfcj6kQPmXHgi-18" target="3eT2xQA9H0DKfOXw9t8V-95" edge="1">
          <mxGeometry width="50" height="50" relative="1" as="geometry">
            <mxPoint x="62.5" y="25" as="sourcePoint" />
            <mxPoint x="87.5" y="45" as="targetPoint" />
          </mxGeometry>
        </mxCell>
        <mxCell id="Xw_29yAICeWVH9qiQ2mz-5" value="" style="endArrow=none;html=1;rounded=0;fontSize=12;startSize=8;endSize=8;curved=1;exitX=0.5;exitY=1;exitDx=0;exitDy=0;entryX=0.5;entryY=0;entryDx=0;entryDy=0;strokeColor=light-dark(#000000,#000000);" parent="1" source="3eT2xQA9H0DKfOXw9t8V-92" target="ufethtAzfcj6kQPmXHgi-18" edge="1">
          <mxGeometry width="50" height="50" relative="1" as="geometry">
            <mxPoint x="42.5" y="-5" as="sourcePoint" />
            <mxPoint x="62.5" y="25" as="targetPoint" />
          </mxGeometry>
        </mxCell>
        <mxCell id="Xw_29yAICeWVH9qiQ2mz-6" value="" style="endArrow=none;html=1;rounded=0;fontSize=12;startSize=8;endSize=8;curved=1;entryX=0.5;entryY=1;entryDx=0;entryDy=0;exitX=0.5;exitY=0;exitDx=0;exitDy=0;strokeColor=light-dark(#000000,#000000);" parent="1" source="ufethtAzfcj6kQPmXHgi-18" target="3eT2xQA9H0DKfOXw9t8V-96" edge="1">
          <mxGeometry width="50" height="50" relative="1" as="geometry">
            <mxPoint x="62.5" y="25" as="sourcePoint" />
            <mxPoint x="382.5" y="105" as="targetPoint" />
          </mxGeometry>
        </mxCell>
        <mxCell id="Xw_29yAICeWVH9qiQ2mz-7" value="" style="endArrow=none;html=1;rounded=0;fontSize=12;startSize=8;endSize=8;curved=1;entryX=0.5;entryY=1;entryDx=0;entryDy=0;exitX=0.5;exitY=0;exitDx=0;exitDy=0;strokeColor=light-dark(#000000,#000000);" parent="1" source="3eT2xQA9H0DKfOXw9t8V-117" target="3eT2xQA9H0DKfOXw9t8V-116" edge="1">
          <mxGeometry width="50" height="50" relative="1" as="geometry">
            <mxPoint x="230" y="710" as="sourcePoint" />
            <mxPoint x="280" y="660" as="targetPoint" />
          </mxGeometry>
        </mxCell>
        <mxCell id="Xw_29yAICeWVH9qiQ2mz-8" value="" style="endArrow=none;html=1;rounded=0;fontSize=12;startSize=8;endSize=8;curved=1;entryX=0.5;entryY=1;entryDx=0;entryDy=0;exitX=0.5;exitY=0;exitDx=0;exitDy=0;strokeColor=light-dark(#000000,#000000);" parent="1" source="3eT2xQA9H0DKfOXw9t8V-118" target="3eT2xQA9H0DKfOXw9t8V-116" edge="1">
          <mxGeometry width="50" height="50" relative="1" as="geometry">
            <mxPoint x="-90" y="641" as="sourcePoint" />
            <mxPoint x="90" y="600" as="targetPoint" />
          </mxGeometry>
        </mxCell>
        <mxCell id="Xw_29yAICeWVH9qiQ2mz-9" value="" style="endArrow=none;html=1;rounded=0;fontSize=12;startSize=8;endSize=8;curved=1;entryX=0.5;entryY=1;entryDx=0;entryDy=0;exitX=0.5;exitY=0;exitDx=0;exitDy=0;strokeColor=light-dark(#000000,#000000);" parent="1" source="3eT2xQA9H0DKfOXw9t8V-119" target="3eT2xQA9H0DKfOXw9t8V-116" edge="1">
          <mxGeometry width="50" height="50" relative="1" as="geometry">
            <mxPoint x="80" y="771" as="sourcePoint" />
            <mxPoint x="260" y="730" as="targetPoint" />
          </mxGeometry>
        </mxCell>
        <mxCell id="Xw_29yAICeWVH9qiQ2mz-10" value="" style="endArrow=none;html=1;rounded=0;fontSize=12;startSize=8;endSize=8;curved=1;entryX=0.5;entryY=1;entryDx=0;entryDy=0;exitX=0.5;exitY=0;exitDx=0;exitDy=0;strokeColor=light-dark(#000000,#000000);" parent="1" source="3eT2xQA9H0DKfOXw9t8V-120" target="3eT2xQA9H0DKfOXw9t8V-116" edge="1">
          <mxGeometry width="50" height="50" relative="1" as="geometry">
            <mxPoint x="110" y="621" as="sourcePoint" />
            <mxPoint x="290" y="580" as="targetPoint" />
          </mxGeometry>
        </mxCell>
        <mxCell id="Xw_29yAICeWVH9qiQ2mz-11" value="" style="endArrow=none;html=1;rounded=0;fontSize=12;startSize=8;endSize=8;curved=1;entryX=0.5;entryY=1;entryDx=0;entryDy=0;exitX=0.5;exitY=0;exitDx=0;exitDy=0;strokeColor=light-dark(#000000,#000000);" parent="1" source="3eT2xQA9H0DKfOXw9t8V-150" target="3eT2xQA9H0DKfOXw9t8V-116" edge="1">
          <mxGeometry width="50" height="50" relative="1" as="geometry">
            <mxPoint x="210" y="611" as="sourcePoint" />
            <mxPoint x="390" y="570" as="targetPoint" />
          </mxGeometry>
        </mxCell>
        <mxCell id="Xw_29yAICeWVH9qiQ2mz-12" value="" style="endArrow=none;html=1;rounded=0;fontSize=12;startSize=8;endSize=8;curved=1;entryX=0.5;entryY=1;entryDx=0;entryDy=0;exitX=0.5;exitY=0;exitDx=0;exitDy=0;strokeColor=light-dark(#000000,#000000);" parent="1" source="3eT2xQA9H0DKfOXw9t8V-78" target="3eT2xQA9H0DKfOXw9t8V-146" edge="1">
          <mxGeometry width="50" height="50" relative="1" as="geometry">
            <mxPoint x="230" y="370" as="sourcePoint" />
            <mxPoint x="280" y="320" as="targetPoint" />
          </mxGeometry>
        </mxCell>
        <mxCell id="Xw_29yAICeWVH9qiQ2mz-13" value="" style="endArrow=none;html=1;rounded=0;fontSize=12;startSize=8;endSize=8;curved=1;entryX=0.5;entryY=1;entryDx=0;entryDy=0;exitX=0.5;exitY=0;exitDx=0;exitDy=0;strokeColor=light-dark(#000000,#000000);" parent="1" source="3eT2xQA9H0DKfOXw9t8V-79" target="3eT2xQA9H0DKfOXw9t8V-146" edge="1">
          <mxGeometry width="50" height="50" relative="1" as="geometry">
            <mxPoint x="230" y="420" as="sourcePoint" />
            <mxPoint x="409" y="380" as="targetPoint" />
          </mxGeometry>
        </mxCell>
        <mxCell id="Xw_29yAICeWVH9qiQ2mz-14" value="" style="endArrow=none;html=1;rounded=0;fontSize=12;startSize=8;endSize=8;curved=1;exitX=0.5;exitY=0;exitDx=0;exitDy=0;entryX=0.5;entryY=1;entryDx=0;entryDy=0;strokeColor=light-dark(#000000,#000000);" parent="1" source="3eT2xQA9H0DKfOXw9t8V-80" target="3eT2xQA9H0DKfOXw9t8V-146" edge="1">
          <mxGeometry width="50" height="50" relative="1" as="geometry">
            <mxPoint x="380" y="420" as="sourcePoint" />
            <mxPoint x="559" y="380" as="targetPoint" />
          </mxGeometry>
        </mxCell>
        <mxCell id="Xw_29yAICeWVH9qiQ2mz-15" value="" style="endArrow=none;html=1;rounded=0;fontSize=12;startSize=8;endSize=8;curved=1;entryX=0.5;entryY=1;entryDx=0;entryDy=0;exitX=0.5;exitY=0;exitDx=0;exitDy=0;strokeColor=light-dark(#000000,#000000);" parent="1" source="3eT2xQA9H0DKfOXw9t8V-81" target="3eT2xQA9H0DKfOXw9t8V-146" edge="1">
          <mxGeometry width="50" height="50" relative="1" as="geometry">
            <mxPoint x="470" y="430" as="sourcePoint" />
            <mxPoint x="649" y="390" as="targetPoint" />
          </mxGeometry>
        </mxCell>
        <mxCell id="Xw_29yAICeWVH9qiQ2mz-16" value="" style="endArrow=none;html=1;rounded=0;fontSize=12;startSize=8;endSize=8;curved=1;entryX=0.5;entryY=0;entryDx=0;entryDy=0;exitX=0.5;exitY=1;exitDx=0;exitDy=0;strokeColor=light-dark(#000000,#000000);" parent="1" source="3eT2xQA9H0DKfOXw9t8V-146" target="3eT2xQA9H0DKfOXw9t8V-82" edge="1">
          <mxGeometry width="50" height="50" relative="1" as="geometry">
            <mxPoint x="530" y="410" as="sourcePoint" />
            <mxPoint x="709" y="370" as="targetPoint" />
          </mxGeometry>
        </mxCell>
        <mxCell id="Xw_29yAICeWVH9qiQ2mz-17" value="" style="endArrow=none;html=1;rounded=0;fontSize=12;startSize=8;endSize=8;curved=1;entryX=0.5;entryY=1;entryDx=0;entryDy=0;exitX=0.5;exitY=0;exitDx=0;exitDy=0;strokeColor=light-dark(#000000,#000000);" parent="1" source="3eT2xQA9H0DKfOXw9t8V-72" target="3eT2xQA9H0DKfOXw9t8V-71" edge="1">
          <mxGeometry width="50" height="50" relative="1" as="geometry">
            <mxPoint x="750" y="370" as="sourcePoint" />
            <mxPoint x="800" y="320" as="targetPoint" />
          </mxGeometry>
        </mxCell>
        <mxCell id="Xw_29yAICeWVH9qiQ2mz-18" value="" style="endArrow=none;html=1;rounded=0;fontSize=12;startSize=8;endSize=8;curved=1;exitX=0.5;exitY=0;exitDx=0;exitDy=0;entryX=0.5;entryY=1;entryDx=0;entryDy=0;strokeColor=light-dark(#000000,#000000);" parent="1" source="3eT2xQA9H0DKfOXw9t8V-73" target="3eT2xQA9H0DKfOXw9t8V-71" edge="1">
          <mxGeometry width="50" height="50" relative="1" as="geometry">
            <mxPoint x="930" y="420" as="sourcePoint" />
            <mxPoint x="950" y="350" as="targetPoint" />
          </mxGeometry>
        </mxCell>
        <mxCell id="Xw_29yAICeWVH9qiQ2mz-19" value="" style="endArrow=none;html=1;rounded=0;fontSize=12;startSize=8;endSize=8;curved=1;entryX=0.5;entryY=1;entryDx=0;entryDy=0;strokeColor=light-dark(#000000,#000000);" parent="1" source="3eT2xQA9H0DKfOXw9t8V-74" target="3eT2xQA9H0DKfOXw9t8V-71" edge="1">
          <mxGeometry width="50" height="50" relative="1" as="geometry">
            <mxPoint x="1040" y="410" as="sourcePoint" />
            <mxPoint x="1219" y="370" as="targetPoint" />
          </mxGeometry>
        </mxCell>
        <mxCell id="Xw_29yAICeWVH9qiQ2mz-20" value="" style="endArrow=none;html=1;rounded=0;fontSize=12;startSize=8;endSize=8;curved=1;entryX=0.5;entryY=1;entryDx=0;entryDy=0;exitX=0.5;exitY=0;exitDx=0;exitDy=0;strokeColor=light-dark(#000000,#000000);" parent="1" source="3eT2xQA9H0DKfOXw9t8V-75" target="3eT2xQA9H0DKfOXw9t8V-71" edge="1">
          <mxGeometry width="50" height="50" relative="1" as="geometry">
            <mxPoint x="1000" y="410" as="sourcePoint" />
            <mxPoint x="1179" y="370" as="targetPoint" />
          </mxGeometry>
        </mxCell>
        <mxCell id="Xw_29yAICeWVH9qiQ2mz-21" value="" style="endArrow=none;html=1;rounded=0;fontSize=12;startSize=8;endSize=8;curved=1;entryX=0.5;entryY=0;entryDx=0;entryDy=0;exitX=0.5;exitY=1;exitDx=0;exitDy=0;strokeColor=light-dark(#000000,#000000);" parent="1" source="3eT2xQA9H0DKfOXw9t8V-71" target="3eT2xQA9H0DKfOXw9t8V-76" edge="1">
          <mxGeometry width="50" height="50" relative="1" as="geometry">
            <mxPoint x="1120" y="350" as="sourcePoint" />
            <mxPoint x="1299" y="310" as="targetPoint" />
          </mxGeometry>
        </mxCell>
        <mxCell id="Xw_29yAICeWVH9qiQ2mz-22" value="" style="endArrow=none;html=1;rounded=0;fontSize=12;startSize=8;endSize=8;curved=1;entryX=0;entryY=0.5;entryDx=0;entryDy=0;exitX=1;exitY=0.5;exitDx=0;exitDy=0;strokeColor=light-dark(#000000,#000000);" parent="1" source="3eT2xQA9H0DKfOXw9t8V-103" target="3eT2xQA9H0DKfOXw9t8V-104" edge="1">
          <mxGeometry width="50" height="50" relative="1" as="geometry">
            <mxPoint x="2000" y="630" as="sourcePoint" />
            <mxPoint x="2179" y="590" as="targetPoint" />
          </mxGeometry>
        </mxCell>
        <mxCell id="Xw_29yAICeWVH9qiQ2mz-23" value="" style="endArrow=none;html=1;rounded=0;fontSize=12;startSize=8;endSize=8;curved=1;entryX=0;entryY=0.5;entryDx=0;entryDy=0;exitX=1;exitY=0.5;exitDx=0;exitDy=0;strokeColor=light-dark(#000000,#000000);" parent="1" source="3eT2xQA9H0DKfOXw9t8V-103" target="3eT2xQA9H0DKfOXw9t8V-106" edge="1">
          <mxGeometry width="50" height="50" relative="1" as="geometry">
            <mxPoint x="1870" y="520" as="sourcePoint" />
            <mxPoint x="2049" y="480" as="targetPoint" />
          </mxGeometry>
        </mxCell>
        <mxCell id="Xw_29yAICeWVH9qiQ2mz-24" value="" style="endArrow=none;html=1;rounded=0;fontSize=12;startSize=8;endSize=8;curved=1;entryX=0;entryY=0.5;entryDx=0;entryDy=0;exitX=1;exitY=0.5;exitDx=0;exitDy=0;strokeColor=light-dark(#000000,#000000);" parent="1" source="3eT2xQA9H0DKfOXw9t8V-103" target="3eT2xQA9H0DKfOXw9t8V-108" edge="1">
          <mxGeometry width="50" height="50" relative="1" as="geometry">
            <mxPoint x="1690" y="610" as="sourcePoint" />
            <mxPoint x="1869" y="570" as="targetPoint" />
          </mxGeometry>
        </mxCell>
        <mxCell id="Xw_29yAICeWVH9qiQ2mz-25" value="" style="endArrow=none;html=1;rounded=0;fontSize=12;startSize=8;endSize=8;curved=1;entryX=0;entryY=0.5;entryDx=0;entryDy=0;exitX=1;exitY=0.5;exitDx=0;exitDy=0;strokeColor=light-dark(#000000,#000000);" parent="1" source="3eT2xQA9H0DKfOXw9t8V-103" target="3eT2xQA9H0DKfOXw9t8V-107" edge="1">
          <mxGeometry width="50" height="50" relative="1" as="geometry">
            <mxPoint x="1720" y="640" as="sourcePoint" />
            <mxPoint x="1899" y="600" as="targetPoint" />
          </mxGeometry>
        </mxCell>
        <mxCell id="Xw_29yAICeWVH9qiQ2mz-26" value="" style="endArrow=none;html=1;rounded=0;fontSize=12;startSize=8;endSize=8;curved=1;entryX=0;entryY=0.5;entryDx=0;entryDy=0;exitX=1;exitY=0.5;exitDx=0;exitDy=0;strokeColor=light-dark(#000000,#000000);" parent="1" source="3eT2xQA9H0DKfOXw9t8V-103" target="3eT2xQA9H0DKfOXw9t8V-105" edge="1">
          <mxGeometry width="50" height="50" relative="1" as="geometry">
            <mxPoint x="1720" y="690" as="sourcePoint" />
            <mxPoint x="1899" y="650" as="targetPoint" />
          </mxGeometry>
        </mxCell>
        <mxCell id="Xw_29yAICeWVH9qiQ2mz-27" value="" style="endArrow=none;html=1;rounded=0;fontSize=12;startSize=8;endSize=8;curved=1;entryX=0.5;entryY=1;entryDx=0;entryDy=0;exitX=0.5;exitY=0;exitDx=0;exitDy=0;strokeColor=light-dark(#000000,#000000);" parent="1" source="3eT2xQA9H0DKfOXw9t8V-111" target="3eT2xQA9H0DKfOXw9t8V-110" edge="1">
          <mxGeometry width="50" height="50" relative="1" as="geometry">
            <mxPoint x="1700" y="1010" as="sourcePoint" />
            <mxPoint x="1750" y="960" as="targetPoint" />
          </mxGeometry>
        </mxCell>
        <mxCell id="Xw_29yAICeWVH9qiQ2mz-28" value="" style="endArrow=none;html=1;rounded=0;fontSize=12;startSize=8;endSize=8;curved=1;entryX=0.5;entryY=1;entryDx=0;entryDy=0;exitX=0.5;exitY=0;exitDx=0;exitDy=0;strokeColor=light-dark(#000000,#000000);" parent="1" source="3eT2xQA9H0DKfOXw9t8V-115" target="3eT2xQA9H0DKfOXw9t8V-110" edge="1">
          <mxGeometry width="50" height="50" relative="1" as="geometry">
            <mxPoint x="1310" y="1040" as="sourcePoint" />
            <mxPoint x="1489" y="1000" as="targetPoint" />
          </mxGeometry>
        </mxCell>
        <mxCell id="Xw_29yAICeWVH9qiQ2mz-29" value="" style="endArrow=none;html=1;rounded=0;fontSize=12;startSize=8;endSize=8;curved=1;entryX=0.5;entryY=1;entryDx=0;entryDy=0;exitX=0.5;exitY=0;exitDx=0;exitDy=0;strokeColor=light-dark(#000000,#000000);" parent="1" source="3eT2xQA9H0DKfOXw9t8V-152" target="3eT2xQA9H0DKfOXw9t8V-110" edge="1">
          <mxGeometry width="50" height="50" relative="1" as="geometry">
            <mxPoint x="1310" y="1040" as="sourcePoint" />
            <mxPoint x="1489" y="1000" as="targetPoint" />
          </mxGeometry>
        </mxCell>
        <mxCell id="Xw_29yAICeWVH9qiQ2mz-30" value="" style="endArrow=none;html=1;rounded=0;fontSize=12;startSize=8;endSize=8;curved=1;entryX=0.5;entryY=1;entryDx=0;entryDy=0;exitX=0.5;exitY=0;exitDx=0;exitDy=0;strokeColor=light-dark(#000000,#000000);" parent="1" source="3eT2xQA9H0DKfOXw9t8V-112" target="3eT2xQA9H0DKfOXw9t8V-110" edge="1">
          <mxGeometry width="50" height="50" relative="1" as="geometry">
            <mxPoint x="1310" y="1040" as="sourcePoint" />
            <mxPoint x="1489" y="1000" as="targetPoint" />
          </mxGeometry>
        </mxCell>
        <mxCell id="Xw_29yAICeWVH9qiQ2mz-31" value="" style="endArrow=none;html=1;rounded=0;fontSize=12;startSize=8;endSize=8;curved=1;entryX=0.5;entryY=1;entryDx=0;entryDy=0;exitX=0.5;exitY=0;exitDx=0;exitDy=0;strokeColor=light-dark(#000000,#000000);" parent="1" source="3eT2xQA9H0DKfOXw9t8V-114" target="3eT2xQA9H0DKfOXw9t8V-110" edge="1">
          <mxGeometry width="50" height="50" relative="1" as="geometry">
            <mxPoint x="1310" y="1040" as="sourcePoint" />
            <mxPoint x="1489" y="1000" as="targetPoint" />
          </mxGeometry>
        </mxCell>
        <mxCell id="Xw_29yAICeWVH9qiQ2mz-32" value="" style="endArrow=none;html=1;rounded=0;fontSize=12;startSize=8;endSize=8;curved=1;entryX=0.5;entryY=1;entryDx=0;entryDy=0;exitX=0.5;exitY=0;exitDx=0;exitDy=0;strokeColor=light-dark(#000000,#000000);" parent="1" source="3eT2xQA9H0DKfOXw9t8V-151" target="3eT2xQA9H0DKfOXw9t8V-110" edge="1">
          <mxGeometry width="50" height="50" relative="1" as="geometry">
            <mxPoint x="1310" y="1040" as="sourcePoint" />
            <mxPoint x="1489" y="1000" as="targetPoint" />
          </mxGeometry>
        </mxCell>
        <mxCell id="Xw_29yAICeWVH9qiQ2mz-33" value="" style="endArrow=none;html=1;rounded=0;fontSize=12;startSize=8;endSize=8;curved=1;entryX=0.5;entryY=1;entryDx=0;entryDy=0;exitX=0.5;exitY=0;exitDx=0;exitDy=0;strokeColor=light-dark(#000000,#000000);" parent="1" source="3eT2xQA9H0DKfOXw9t8V-113" target="3eT2xQA9H0DKfOXw9t8V-110" edge="1">
          <mxGeometry width="50" height="50" relative="1" as="geometry">
            <mxPoint x="1310" y="1040" as="sourcePoint" />
            <mxPoint x="1489" y="1000" as="targetPoint" />
          </mxGeometry>
        </mxCell>
        <mxCell id="Xw_29yAICeWVH9qiQ2mz-34" value="" style="endArrow=none;html=1;rounded=0;fontSize=12;startSize=8;endSize=8;curved=1;entryX=0.5;entryY=0;entryDx=0;entryDy=0;exitX=0.5;exitY=1;exitDx=0;exitDy=0;strokeColor=light-dark(#000000,#000000);" parent="1" source="3eT2xQA9H0DKfOXw9t8V-110" target="Xw_29yAICeWVH9qiQ2mz-54" edge="1">
          <mxGeometry width="50" height="50" relative="1" as="geometry">
            <mxPoint x="1870" y="1040" as="sourcePoint" />
            <mxPoint x="1929.25" y="1070" as="targetPoint" />
          </mxGeometry>
        </mxCell>
        <mxCell id="Xw_29yAICeWVH9qiQ2mz-35" value="" style="endArrow=none;html=1;rounded=0;fontSize=12;startSize=8;endSize=8;curved=1;exitX=0.5;exitY=1;exitDx=0;exitDy=0;entryX=0.5;entryY=0;entryDx=0;entryDy=0;strokeColor=light-dark(#000000,#000000);" parent="1" source="3eT2xQA9H0DKfOXw9t8V-84" target="3eT2xQA9H0DKfOXw9t8V-83" edge="1">
          <mxGeometry width="50" height="50" relative="1" as="geometry">
            <mxPoint x="1770" y="280" as="sourcePoint" />
            <mxPoint x="1620" y="150" as="targetPoint" />
          </mxGeometry>
        </mxCell>
        <mxCell id="Xw_29yAICeWVH9qiQ2mz-36" value="" style="endArrow=none;html=1;rounded=0;fontSize=12;startSize=8;endSize=8;curved=1;entryX=0.5;entryY=0;entryDx=0;entryDy=0;exitX=0.5;exitY=1;exitDx=0;exitDy=0;strokeColor=light-dark(#000000,#000000);" parent="1" source="3eT2xQA9H0DKfOXw9t8V-86" target="3eT2xQA9H0DKfOXw9t8V-83" edge="1">
          <mxGeometry width="50" height="50" relative="1" as="geometry">
            <mxPoint x="1800" y="270" as="sourcePoint" />
            <mxPoint x="1979" y="230" as="targetPoint" />
          </mxGeometry>
        </mxCell>
        <mxCell id="Xw_29yAICeWVH9qiQ2mz-37" value="" style="endArrow=none;html=1;rounded=0;fontSize=12;startSize=8;endSize=8;curved=1;entryX=0.5;entryY=0;entryDx=0;entryDy=0;exitX=0.5;exitY=1;exitDx=0;exitDy=0;strokeColor=light-dark(#000000,#000000);" parent="1" source="3eT2xQA9H0DKfOXw9t8V-85" target="3eT2xQA9H0DKfOXw9t8V-83" edge="1">
          <mxGeometry width="50" height="50" relative="1" as="geometry">
            <mxPoint x="1800" y="260" as="sourcePoint" />
            <mxPoint x="1979" y="220" as="targetPoint" />
          </mxGeometry>
        </mxCell>
        <mxCell id="Xw_29yAICeWVH9qiQ2mz-38" value="" style="endArrow=none;html=1;rounded=0;fontSize=12;startSize=8;endSize=8;curved=1;entryX=0.5;entryY=1;entryDx=0;entryDy=0;exitX=0.5;exitY=0;exitDx=0;exitDy=0;strokeColor=light-dark(#000000,#000000);" parent="1" source="3eT2xQA9H0DKfOXw9t8V-83" target="3eT2xQA9H0DKfOXw9t8V-87" edge="1">
          <mxGeometry width="50" height="50" relative="1" as="geometry">
            <mxPoint x="1800" y="250" as="sourcePoint" />
            <mxPoint x="1979" y="210" as="targetPoint" />
          </mxGeometry>
        </mxCell>
        <mxCell id="Xw_29yAICeWVH9qiQ2mz-39" value="" style="endArrow=none;html=1;rounded=0;fontSize=12;startSize=8;endSize=8;curved=1;entryX=0.5;entryY=1;entryDx=0;entryDy=0;exitX=0.5;exitY=0;exitDx=0;exitDy=0;strokeColor=light-dark(#000000,#000000);" parent="1" source="3eT2xQA9H0DKfOXw9t8V-83" target="3eT2xQA9H0DKfOXw9t8V-88" edge="1">
          <mxGeometry width="50" height="50" relative="1" as="geometry">
            <mxPoint x="1830" y="270" as="sourcePoint" />
            <mxPoint x="2009" y="230" as="targetPoint" />
          </mxGeometry>
        </mxCell>
        <mxCell id="Xw_29yAICeWVH9qiQ2mz-40" value="" style="endArrow=none;html=1;rounded=0;fontSize=12;startSize=8;endSize=8;curved=1;entryX=0.5;entryY=1;entryDx=0;entryDy=0;exitX=0.5;exitY=0;exitDx=0;exitDy=0;strokeColor=light-dark(#000000,#000000);" parent="1" source="3eT2xQA9H0DKfOXw9t8V-171" target="3eT2xQA9H0DKfOXw9t8V-170" edge="1">
          <mxGeometry width="50" height="50" relative="1" as="geometry">
            <mxPoint x="2160" y="620" as="sourcePoint" />
            <mxPoint x="2339" y="580" as="targetPoint" />
          </mxGeometry>
        </mxCell>
        <mxCell id="Xw_29yAICeWVH9qiQ2mz-41" value="" style="endArrow=none;html=1;rounded=0;fontSize=12;startSize=8;endSize=8;curved=1;entryX=0.5;entryY=1;entryDx=0;entryDy=0;exitX=0.5;exitY=0;exitDx=0;exitDy=0;strokeColor=light-dark(#000000,#000000);" parent="1" source="3eT2xQA9H0DKfOXw9t8V-173" target="3eT2xQA9H0DKfOXw9t8V-170" edge="1">
          <mxGeometry width="50" height="50" relative="1" as="geometry">
            <mxPoint x="2090" y="290" as="sourcePoint" />
            <mxPoint x="2269" y="250" as="targetPoint" />
          </mxGeometry>
        </mxCell>
        <mxCell id="Xw_29yAICeWVH9qiQ2mz-43" value="" style="endArrow=none;html=1;rounded=0;fontSize=12;startSize=8;endSize=8;curved=1;entryX=0.5;entryY=1;entryDx=0;entryDy=0;exitX=0.5;exitY=0;exitDx=0;exitDy=0;strokeColor=light-dark(#000000,#000000);" parent="1" source="3eT2xQA9H0DKfOXw9t8V-172" target="3eT2xQA9H0DKfOXw9t8V-170" edge="1">
          <mxGeometry width="50" height="50" relative="1" as="geometry">
            <mxPoint x="2090" y="320" as="sourcePoint" />
            <mxPoint x="2269" y="280" as="targetPoint" />
          </mxGeometry>
        </mxCell>
        <mxCell id="Xw_29yAICeWVH9qiQ2mz-44" value="" style="endArrow=none;html=1;rounded=0;fontSize=12;startSize=8;endSize=8;curved=1;entryX=0.5;entryY=1;entryDx=0;entryDy=0;exitX=0.5;exitY=0;exitDx=0;exitDy=0;strokeColor=light-dark(#000000,#000000);" parent="1" source="3eT2xQA9H0DKfOXw9t8V-175" target="3eT2xQA9H0DKfOXw9t8V-170" edge="1">
          <mxGeometry width="50" height="50" relative="1" as="geometry">
            <mxPoint x="2280" y="300" as="sourcePoint" />
            <mxPoint x="2459" y="260" as="targetPoint" />
          </mxGeometry>
        </mxCell>
        <mxCell id="Xw_29yAICeWVH9qiQ2mz-45" value="" style="endArrow=none;html=1;rounded=0;fontSize=12;startSize=8;endSize=8;curved=1;entryX=0.5;entryY=1;entryDx=0;entryDy=0;exitX=0.5;exitY=0;exitDx=0;exitDy=0;strokeColor=light-dark(#000000,#000000);" parent="1" source="3eT2xQA9H0DKfOXw9t8V-176" target="3eT2xQA9H0DKfOXw9t8V-170" edge="1">
          <mxGeometry width="50" height="50" relative="1" as="geometry">
            <mxPoint x="2290" y="300" as="sourcePoint" />
            <mxPoint x="2469" y="260" as="targetPoint" />
          </mxGeometry>
        </mxCell>
        <mxCell id="Xw_29yAICeWVH9qiQ2mz-50" value="" style="endArrow=none;html=1;rounded=0;fontSize=12;startSize=8;endSize=8;curved=1;entryX=0.5;entryY=0;entryDx=0;entryDy=0;strokeColor=light-dark(#000000,#000000);exitX=1;exitY=1;exitDx=0;exitDy=0;" parent="1" source="Xw_29yAICeWVH9qiQ2mz-52" target="3eT2xQA9H0DKfOXw9t8V-92" edge="1">
          <mxGeometry width="50" height="50" relative="1" as="geometry">
            <mxPoint x="65" y="-165" as="sourcePoint" />
            <mxPoint x="450" y="-15" as="targetPoint" />
          </mxGeometry>
        </mxCell>
        <mxCell id="Xw_29yAICeWVH9qiQ2mz-51" value="" style="endArrow=none;html=1;rounded=0;fontSize=12;startSize=8;endSize=8;curved=1;exitX=0.5;exitY=0;exitDx=0;exitDy=0;strokeColor=light-dark(#000000,#000000);entryX=0;entryY=1;entryDx=0;entryDy=0;" parent="1" source="3eT2xQA9H0DKfOXw9t8V-92" target="Xw_29yAICeWVH9qiQ2mz-53" edge="1">
          <mxGeometry width="50" height="50" relative="1" as="geometry">
            <mxPoint x="135" y="-115" as="sourcePoint" />
            <mxPoint x="135" y="-165" as="targetPoint" />
          </mxGeometry>
        </mxCell>
        <mxCell id="Xw_29yAICeWVH9qiQ2mz-52" value="fecha_inicio" style="ellipse;whiteSpace=wrap;html=1;aspect=fixed;labelBackgroundColor=light-dark(#FF99FF,#FF99FF);fillColor=light-dark(#FF99FF,#FF99FF);fontColor=light-dark(#000000,#000000);gradientColor=none;strokeColor=light-dark(#000000,#000000);fontStyle=0" parent="1" vertex="1">
          <mxGeometry x="-5" y="-235" width="90" height="90" as="geometry" />
        </mxCell>
        <mxCell id="Xw_29yAICeWVH9qiQ2mz-53" value="fecha_fin" style="ellipse;whiteSpace=wrap;html=1;aspect=fixed;labelBackgroundColor=light-dark(#FF99FF,#FF99FF);fillColor=light-dark(#FF99FF,#FF99FF);fontColor=light-dark(#000000,#000000);gradientColor=none;strokeColor=light-dark(#000000,#000000);" parent="1" vertex="1">
          <mxGeometry x="115" y="-235" width="90" height="90" as="geometry" />
        </mxCell>
        <mxCell id="Xw_29yAICeWVH9qiQ2mz-54" value="bono_mensual" style="ellipse;whiteSpace=wrap;html=1;align=center;dashed=1;fillColor=light-dark(#FF99FF,#FF99FF);fontColor=light-dark(#000000,#000000);strokeColor=light-dark(#000000,#000000);" parent="1" vertex="1">
          <mxGeometry x="1884.25" y="1070" width="90" height="90" as="geometry" />
        </mxCell>
        <mxCell id="ufethtAzfcj6kQPmXHgi-1" value="ubicado en" style="text;html=1;align=center;verticalAlign=middle;resizable=0;points=[];autosize=1;strokeColor=none;fillColor=none;" vertex="1" parent="1">
          <mxGeometry x="180" y="298" width="80" height="30" as="geometry" />
        </mxCell>
        <mxCell id="ufethtAzfcj6kQPmXHgi-2" value="ubica" style="text;html=1;align=center;verticalAlign=middle;resizable=0;points=[];autosize=1;strokeColor=none;fillColor=none;" vertex="1" parent="1">
          <mxGeometry x="50" y="420" width="50" height="30" as="geometry" />
        </mxCell>
        <mxCell id="ufethtAzfcj6kQPmXHgi-3" value="gestionado por" style="text;html=1;align=center;verticalAlign=middle;resizable=0;points=[];autosize=1;strokeColor=none;fillColor=none;" vertex="1" parent="1">
          <mxGeometry x="1519.25" y="260" width="100" height="30" as="geometry" />
        </mxCell>
        <mxCell id="ufethtAzfcj6kQPmXHgi-4" value="gestiona" style="text;html=1;align=center;verticalAlign=middle;resizable=0;points=[];autosize=1;strokeColor=none;fillColor=none;" vertex="1" parent="1">
          <mxGeometry x="1549.25" y="435" width="70" height="30" as="geometry" />
        </mxCell>
        <mxCell id="ufethtAzfcj6kQPmXHgi-5" value="hecho por" style="text;html=1;align=center;verticalAlign=middle;resizable=0;points=[];autosize=1;strokeColor=none;fillColor=none;" vertex="1" parent="1">
          <mxGeometry x="1544.25" y="858" width="80" height="30" as="geometry" />
        </mxCell>
        <mxCell id="ufethtAzfcj6kQPmXHgi-6" value="hace" style="text;html=1;align=center;verticalAlign=middle;resizable=0;points=[];autosize=1;strokeColor=none;fillColor=none;" vertex="1" parent="1">
          <mxGeometry x="1569.25" y="645" width="50" height="30" as="geometry" />
        </mxCell>
        <mxCell id="ufethtAzfcj6kQPmXHgi-7" value="contiene" style="text;html=1;align=center;verticalAlign=middle;resizable=0;points=[];autosize=1;strokeColor=none;fillColor=none;" vertex="1" parent="1">
          <mxGeometry x="515" y="288" width="70" height="30" as="geometry" />
        </mxCell>
        <mxCell id="ufethtAzfcj6kQPmXHgi-8" value="pertenece" style="text;html=1;align=center;verticalAlign=middle;resizable=0;points=[];autosize=1;strokeColor=none;fillColor=none;" vertex="1" parent="1">
          <mxGeometry x="760" y="288" width="80" height="30" as="geometry" />
        </mxCell>
        <mxCell id="ufethtAzfcj6kQPmXHgi-10" value="asjgnado a" style="text;html=1;align=center;verticalAlign=middle;resizable=0;points=[];autosize=1;strokeColor=none;fillColor=none;" vertex="1" parent="1">
          <mxGeometry x="414" y="230" width="80" height="30" as="geometry" />
        </mxCell>
        <mxCell id="ufethtAzfcj6kQPmXHgi-11" value="se le asigna" style="text;html=1;align=center;verticalAlign=middle;resizable=0;points=[];autosize=1;strokeColor=none;fillColor=none;" vertex="1" parent="1">
          <mxGeometry x="710" y="150" width="90" height="30" as="geometry" />
        </mxCell>
        <mxCell id="ufethtAzfcj6kQPmXHgi-12" value="N:M" style="text;html=1;align=center;verticalAlign=middle;resizable=0;points=[];autosize=1;strokeColor=none;fillColor=none;" vertex="1" parent="1">
          <mxGeometry x="-60" y="305" width="50" height="30" as="geometry" />
        </mxCell>
        <mxCell id="ufethtAzfcj6kQPmXHgi-13" value="N:M" style="text;html=1;align=center;verticalAlign=middle;resizable=0;points=[];autosize=1;strokeColor=none;fillColor=none;" vertex="1" parent="1">
          <mxGeometry x="309" y="165" width="50" height="30" as="geometry" />
        </mxCell>
        <mxCell id="ufethtAzfcj6kQPmXHgi-14" value="N:M" style="text;html=1;align=center;verticalAlign=middle;resizable=0;points=[];autosize=1;strokeColor=none;fillColor=none;" vertex="1" parent="1">
          <mxGeometry x="639" y="471.25" width="50" height="30" as="geometry" />
        </mxCell>
        <mxCell id="ufethtAzfcj6kQPmXHgi-15" value="1:N" style="text;html=1;align=center;verticalAlign=middle;resizable=0;points=[];autosize=1;strokeColor=none;fillColor=none;" vertex="1" parent="1">
          <mxGeometry x="1504" y="345" width="40" height="30" as="geometry" />
        </mxCell>
        <mxCell id="ufethtAzfcj6kQPmXHgi-16" value="1:N" style="text;html=1;align=center;verticalAlign=middle;resizable=0;points=[];autosize=1;strokeColor=none;fillColor=none;" vertex="1" parent="1">
          <mxGeometry x="1504" y="765" width="40" height="30" as="geometry" />
        </mxCell>
        <mxCell id="ufethtAzfcj6kQPmXHgi-18" value="PRODUCTIVIDAD_&lt;div&gt;ZONA&lt;/div&gt;" style="shape=process;whiteSpace=wrap;html=1;backgroundOutline=1;fillColor=light-dark(#FF99FF,#FF99FF);fontColor=light-dark(#000000,#000000);strokeColor=light-dark(#000000,#000000);" vertex="1" parent="1">
          <mxGeometry x="-17.5" y="30" width="145" height="60" as="geometry" />
        </mxCell>
        <mxCell id="ufethtAzfcj6kQPmXHgi-20" value="&lt;div&gt;&lt;b&gt;ID&lt;/b&gt;&lt;/div&gt;&lt;div&gt;&lt;br&gt;&lt;/div&gt;IDENTIFICA" style="rhombus;whiteSpace=wrap;html=1;fillColor=light-dark(#FFFF99,#FFFF99);fontColor=light-dark(#000000,#000000);strokeColor=light-dark(#000000,#000000);" vertex="1" parent="1">
          <mxGeometry x="169" y="130" width="130" height="80" as="geometry" />
        </mxCell>
        <mxCell id="ufethtAzfcj6kQPmXHgi-21" value="" style="endArrow=none;html=1;rounded=0;entryX=1;entryY=0.5;entryDx=0;entryDy=0;exitX=0;exitY=0;exitDx=0;exitDy=0;" edge="1" parent="1" source="ufethtAzfcj6kQPmXHgi-20" target="ufethtAzfcj6kQPmXHgi-18">
          <mxGeometry width="50" height="50" relative="1" as="geometry">
            <mxPoint x="110" y="140" as="sourcePoint" />
            <mxPoint x="160" y="90" as="targetPoint" />
          </mxGeometry>
        </mxCell>
        <mxCell id="ufethtAzfcj6kQPmXHgi-22" value="" style="endArrow=none;html=1;rounded=0;entryX=1;entryY=1;entryDx=0;entryDy=0;exitX=0.25;exitY=0;exitDx=0;exitDy=0;" edge="1" parent="1" source="3eT2xQA9H0DKfOXw9t8V-146" target="ufethtAzfcj6kQPmXHgi-20">
          <mxGeometry width="50" height="50" relative="1" as="geometry">
            <mxPoint x="110" y="140" as="sourcePoint" />
            <mxPoint x="160" y="90" as="targetPoint" />
          </mxGeometry>
        </mxCell>
        <mxCell id="ufethtAzfcj6kQPmXHgi-23" value="0:N" style="text;html=1;align=center;verticalAlign=middle;resizable=0;points=[];autosize=1;strokeColor=none;fillColor=none;" vertex="1" parent="1">
          <mxGeometry x="130" y="38" width="40" height="30" as="geometry" />
        </mxCell>
        <mxCell id="ufethtAzfcj6kQPmXHgi-24" value="1:1" style="text;html=1;align=center;verticalAlign=middle;resizable=0;points=[];autosize=1;strokeColor=none;fillColor=none;" vertex="1" parent="1">
          <mxGeometry x="320" y="258" width="40" height="30" as="geometry" />
        </mxCell>
        <mxCell id="ufethtAzfcj6kQPmXHgi-25" value="&lt;div&gt;&lt;b&gt;ID&lt;/b&gt;&lt;/div&gt;&lt;div&gt;&lt;br&gt;&lt;/div&gt;IDENTIFICA" style="rhombus;whiteSpace=wrap;html=1;fillColor=light-dark(#FFFF99,#FFFF99);fontColor=light-dark(#000000,#000000);strokeColor=light-dark(#000000,#000000);" vertex="1" parent="1">
          <mxGeometry x="1794.25" y="150" width="130" height="80" as="geometry" />
        </mxCell>
        <mxCell id="ufethtAzfcj6kQPmXHgi-26" value="" style="endArrow=none;html=1;rounded=0;entryX=1;entryY=0.5;entryDx=0;entryDy=0;exitX=0;exitY=0;exitDx=0;exitDy=0;" edge="1" parent="1" source="ufethtAzfcj6kQPmXHgi-25" target="3eT2xQA9H0DKfOXw9t8V-83">
          <mxGeometry width="50" height="50" relative="1" as="geometry">
            <mxPoint x="1882" y="-150" as="sourcePoint" />
            <mxPoint x="1900" y="-230" as="targetPoint" />
          </mxGeometry>
        </mxCell>
        <mxCell id="ufethtAzfcj6kQPmXHgi-27" value="" style="endArrow=none;html=1;rounded=0;entryX=1;entryY=1;entryDx=0;entryDy=0;exitX=0;exitY=0.5;exitDx=0;exitDy=0;" edge="1" parent="1" target="ufethtAzfcj6kQPmXHgi-25" source="3eT2xQA9H0DKfOXw9t8V-170">
          <mxGeometry width="50" height="50" relative="1" as="geometry">
            <mxPoint x="2156" as="sourcePoint" />
            <mxPoint x="1932" y="-200" as="targetPoint" />
          </mxGeometry>
        </mxCell>
        <mxCell id="ufethtAzfcj6kQPmXHgi-28" value="1:1" style="text;html=1;align=center;verticalAlign=middle;resizable=0;points=[];autosize=1;strokeColor=none;fillColor=none;" vertex="1" parent="1">
          <mxGeometry x="1670" y="188" width="40" height="30" as="geometry" />
        </mxCell>
        <mxCell id="ufethtAzfcj6kQPmXHgi-29" value="0:N" style="text;html=1;align=center;verticalAlign=middle;resizable=0;points=[];autosize=1;strokeColor=none;fillColor=none;" vertex="1" parent="1">
          <mxGeometry x="1990" y="188" width="40" height="30" as="geometry" />
        </mxCell>
      </root>
    </mxGraphModel>
  </diagram>
</mxfile>
